<svg xmlns="http://www.w3.org/2000/svg" width="22.66" height="22.6" viewBox="0 0 22.66 22.6">
  <defs>
    <style>
      .cls-1 {
        fill: #fff;
        fill-rule: evenodd;
      }
    </style>
  </defs>
  <path id="Фигура_1207" data-name="Фигура 1207" class="cls-1" d="M1366.78,6873.48a1.749,1.749,0,0,0-2.65,0c-0.62.61-1.24,1.23-1.85,1.85a0.373,0.373,0,0,1-.51.1c-0.41-.22-0.83-0.4-1.22-0.64a18.993,18.993,0,0,1-4.63-4.22,10.94,10.94,0,0,1-1.67-2.66,0.393,0.393,0,0,1,.1-0.49c0.62-.59,1.22-1.21,1.83-1.82a1.759,1.759,0,0,0,0-2.71l-1.46-1.46c-0.5-.5-0.99-1.01-1.5-1.5a1.763,1.763,0,0,0-2.65,0c-0.62.62-1.22,1.25-1.86,1.85a3.055,3.055,0,0,0-.95,2.04,8.58,8.58,0,0,0,.67,3.71,22.466,22.466,0,0,0,4.01,6.67,24.863,24.863,0,0,0,8.21,6.42,11.961,11.961,0,0,0,4.54,1.32,3.329,3.329,0,0,0,2.86-1.09c0.53-.59,1.13-1.14,1.7-1.7a1.782,1.782,0,0,0,.01-2.7C1368.77,6875.46,1367.77,6874.47,1366.78,6873.48Z" transform="translate(-1347.75 -6859.34)"/>
</svg>
