<svg xmlns="http://www.w3.org/2000/svg" width="28.84" height="20.28" viewBox="0 0 28.84 20.28">
  <defs>
    <style>
      .cls-1 {
        fill: #fff;
        fill-rule: evenodd;
      }
    </style>
  </defs>
  <path id="иконка_почта" data-name="иконка почта" class="cls-1" d="M1119.02,6638.36h-23.77a2.533,2.533,0,0,0-2.53,2.53v15.21a2.541,2.541,0,0,0,2.53,2.54h23.77a2.544,2.544,0,0,0,2.54-2.54v-15.21A2.535,2.535,0,0,0,1119.02,6638.36Zm-0.35,1.69c-0.52.51-9.43,9.38-9.74,9.68a2.523,2.523,0,0,1-3.59,0c-0.2-.2-9.02-8.97-9.73-9.68h23.06Zm-24.26,15.71v-14.52l7.3,7.26Zm1.2,1.19,7.3-7.26,1.24,1.24a4.213,4.213,0,0,0,5.97,0l1.25-1.24,7.3,7.26h-23.06Zm24.26-1.19-7.31-7.26,7.31-7.26v14.52Z" transform="translate(-1092.72 -6638.34)"/>
</svg>
