<svg xmlns="http://www.w3.org/2000/svg" width="25.94" height="25.97" viewBox="0 0 25.94 25.97">
  <defs>
    <style>
      .cls-1 {
        fill: #fff;
        fill-rule: evenodd;
      }
    </style>
  </defs>
  <path id="иконка_телефон" data-name="иконка телефон" class="cls-1" d="M1119.53,6593.96l-3.16-3.15a2.884,2.884,0,0,0-2.09-.95,2.982,2.982,0,0,0-2.12.95l-1.7,1.69c-0.1-.05-0.2-0.1-0.31-0.15-0.19-.1-0.38-0.2-0.54-0.3a19.433,19.433,0,0,1-4.68-4.25,11.47,11.47,0,0,1-1.46-2.26c0.44-.4.85-0.82,1.24-1.21,0.15-.16.32-0.33,0.48-0.48a2.824,2.824,0,0,0,0-4.26l-1.57-1.56c-0.18-.18-0.34-0.35-0.52-0.52l-0.01-.02c-0.35-.35-0.71-0.72-1.08-1.06a2.975,2.975,0,0,0-2.09-.91,3.051,3.051,0,0,0-2.1.91l-1.98,1.97a4.366,4.366,0,0,0-1.3,2.79,10.184,10.184,0,0,0,.75,4.34,24.708,24.708,0,0,0,4.43,7.36h0a27.1,27.1,0,0,0,9.07,7.08,14.036,14.036,0,0,0,5.13,1.51l0.02,0.01c0.13,0,.24.01,0.36,0.01a4.5,4.5,0,0,0,3.47-1.49,0.381,0.381,0,0,0,.05-0.06,11.155,11.155,0,0,1,.9-0.93l0.07-.07c0.3-.29.54-0.52,0.75-0.75a3.027,3.027,0,0,0,.94-2.13A2.978,2.978,0,0,0,1119.53,6593.96Zm-3.22,4.75a2.578,2.578,0,0,1-2,.84c-0.08,0-.16-0.01-0.25-0.01a12.427,12.427,0,0,1-4.41-1.32,25.279,25.279,0,0,1-8.41-6.57,23.087,23.087,0,0,1-4.09-6.79,8.123,8.123,0,0,1-.65-3.51,2.491,2.491,0,0,1,.74-1.57l1.96-1.94a0.905,0.905,0,0,1,1.43,0l0.01,0.01c0.3,0.28.58,0.57,0.89,0.88l0.14,0.14c0.09,0.09.18,0.19,0.27,0.28l0.28,0.28,1.56,1.56a0.884,0.884,0,0,1,0,1.48c-0.08.08-.16,0.16-0.24,0.25s-0.17.16-.25,0.24l-0.11.11c-0.44.45-.86,0.88-1.32,1.28l-0.04.04a1.37,1.37,0,0,0-.35,1.51,0.147,0.147,0,0,0,.02.04l0.01,0.03a12.463,12.463,0,0,0,1.89,3.07,21.388,21.388,0,0,0,5.15,4.68,6.08,6.08,0,0,0,.61.33l0.12,0.06c0.19,0.1.38,0.2,0.54,0.3l0.03,0.02h0.02c0.01,0.01.03,0.02,0.04,0.03a1.472,1.472,0,0,0,.66.17,1.44,1.44,0,0,0,1.03-.46l1.97-1.96a1.073,1.073,0,0,1,.72-0.37,1.044,1.044,0,0,1,.68.36l3.18,3.16a0.948,0.948,0,0,1-.03,1.51c-0.22.24-.46,0.47-0.69,0.68l-0.06.06A12.282,12.282,0,0,0,1116.31,6598.71Z" transform="translate(-1094.53 -6575.53)"/>
</svg>
