<svg xmlns="http://www.w3.org/2000/svg" width="19.44" height="26.81" viewBox="0 0 19.44 26.81">
  <defs>
    <style>
      .cls-1 {
        fill: #fff;
        fill-rule: evenodd;
      }
    </style>
  </defs>
  <path id="иконка_карта" data-name="иконка карта" class="cls-1" d="M1107.78,6455.53a9.728,9.728,0,0,0-9.72,9.71c0,6.65,8.7,16.41,9.07,16.82a0.868,0.868,0,0,0,1.3,0c0.37-.41,9.07-10.17,9.07-16.82A9.728,9.728,0,0,0,1107.78,6455.53Zm0,24.61c-2.93-3.48-7.97-10.33-7.97-14.9a7.97,7.97,0,0,1,15.94,0C1115.75,6469.81,1110.71,6476.66,1107.78,6480.14Zm0-19.78a4.885,4.885,0,1,0,4.89,4.88A4.889,4.889,0,0,0,1107.78,6460.36Zm0,8.02a3.135,3.135,0,1,1,3.14-3.14A3.145,3.145,0,0,1,1107.78,6468.38Z" transform="translate(-1098.06 -6455.53)"/>
</svg>
